#!OML:ASF F:\VICON\USERDATA\INSTALL\rory3\rory3.ASF
:FULLY-SPECIFIED
:DEGREES
1927
root 0.213219 15.7212 -2.11568 17.4189 1.81255 -2.50837
lowerback 31.8564 1.17064 -0.749708
upperback 8.87368 1.20709 -0.297964
thorax -7.35082 0.572422 -0.34395
lowerneck -13.6129 -6.25668 -12.0104
upperneck 2.6332 -7.5964 16.7026
head 4.18207 -3.16025 6.5817
rclavicle -1.0138e-014 2.5842e-015
rhumerus 30.1242 44.5665 -22.7212
rradius 79.8349
rwrist -9.90899
rhand 24.3609 9.92134
rfingers 7.12502
rthumb 48.5738 -12.0193
lclavicle -1.0138e-014 2.5842e-015
lhumerus 38.416 -11.5377 58.1051
lradius 77.7898
lwrist 3.76727
lhand -8.58872 18.2253
lfingers 7.12502
lthumb 17.3423 47.4716
rfemur -40.284 6.29696 15.5902
rtibia 37.2038
rfoot -10.5483 -9.52953
rtoes -12.0025
lfemur -41.1583 -4.84382 -10.3557
ltibia 36.2197
lfoot -8.37606 3.02403
ltoes -13.4509
1928
root 0.207616 15.7381 -2.0903 17.4137 1.9454 -2.663
lowerback 31.6942 1.10844 -0.733885
upperback 8.76515 1.1471 -0.195958
thorax -7.40204 0.543948 -0.215138
lowerneck -13.9846 -5.80394 -11.6842
upperneck 2.76106 -6.97022 16.2137
head 4.15262 -2.8491 6.4265
rclavicle 9.74045e-015 -3.57812e-015
rhumerus 28.2035 45.5857 -24.6933
rradius 82.3737
rwrist -11.249
rhand 25.386 9.82445
rfingers 7.12502
rthumb 49.5153 -11.6491
lclavicle 9.74045e-015 -3.57812e-015
lhumerus 38.0951 -11.8415 57.9264
lradius 75.7892
lwrist 3.60443
lhand -7.55365 19.7004
lfingers 7.12502
lthumb 18.3383 48.856
rfemur -39.891 6.21716 15.8514
rtibia 36.7274
rfoot -10.4341 -9.53246
rtoes -12.1536
lfemur -40.8767 -5.0631 -10.0767
ltibia 35.8832
lfoot -8.37894 3.12441
ltoes -13.1348
1929
root 0.206105 15.7559 -2.06498 17.4388 2.03578 -2.80545
lowerback 31.518 1.08299 -0.654378
upperback 8.64231 1.15655 -0.0450399
thorax -7.46289 0.547467 -0.0936922
lowerneck -14.328 -5.33079 -11.4625
upperneck 2.81293 -6.28612 15.6305
head 4.09164 -2.51894 6.26358
rclavicle 8.74653e-015 -8.74653e-015
rhumerus 25.6536 45.8557 -27.4267
rradius 85.0053
rwrist -12.35
rhand 26.7345 9.6622
rfingers 7.12502
rthumb 50.7486 -11.1584
lclavicle 8.74653e-015 -8.74653e-015
lhumerus 37.7072 -12.5966 57.3147
lradius 73.9692
lwrist 3.91302
lhand -6.44835 21.0798
lfingers 7.12502
lthumb 19.4013 50.1319
rfemur -39.5525 6.16876 16.0515
rtibia 36.2932
rfoot -10.3904 -9.44785
rtoes -11.5725
lfemur -40.6271 -5.2946 -9.82839
ltibia 35.5456
lfoot -8.40079 3.35368
ltoes -13.4834
1930
root 0.208166 15.7724 -2.04084 17.4424 2.04289 -2.9135
lowerback 31.4215 1.07827 -0.606789
upperback 8.48788 1.18226 0.120172
thorax -7.59742 0.558531 0.0548398
lowerneck -14.605 -4.81685 -11.2036
upperneck 2.84043 -5.55386 14.982
head 4.0081 -2.17178 6.07719
rclavicle -1.78906e-014 1.98785e-016
rhumerus 23.4206 45.7228 -29.8879
rradius 87.5964
rwrist -13.3067
rhand 28.043 9.13588
rfingers 7.12502
rthumb 51.9392 -11.0058
lclavicle -1.78906e-014 1.98785e-016
lhumerus 37.1151 -13.6813 56.3198
lradius 72.3615
lwrist 4.37588
lhand -5.02538 22.2306
lfingers 7.12502
lthumb 20.769 51.1391
rfemur -39.2283 6.18562 16.1767
rtibia 35.8915
rfoot -10.3935 -9.40925
rtoes -11.0641
lfemur -40.346 -5.55649 -9.6183
ltibia 35.2133
lfoot -8.44673 3.66585
ltoes -13.3618
1931
root 0.211878 15.7843 -2.01873 17.4444 2.04381 -2.8504
lowerback 31.2924 1.07462 -0.63191
upperback 8.36446 1.18508 0.250904
thorax -7.6816 0.560069 0.215795
lowerneck -14.8818 -4.2655 -10.906
upperneck 2.87866 -4.78068 14.318
head 3.92815 -1.80534 5.88178
rclavicle 8.34896e-015 2.78299e-015
rhumerus 21.8858 45.2367 -31.6028
rradius 90.1001
rwrist -14.1654
rhand 28.3478 8.66536
rfingers 7.12502
rthumb 52.2155 -11.3114
lclavicle 8.34896e-015 2.78299e-015
lhumerus 36.4461 -15.0848 55.0544
lradius 70.9578
lwrist 4.97505
lhand -3.65871 23.1274
lfingers 7.12502
lthumb 22.0817 51.8866
rfemur -38.9259 6.07332 16.1466
rtibia 35.5207
rfoot -10.2606 -9.33433
rtoes -11.1705
lfemur -40.0898 -5.80389 -9.62763
ltibia 34.9045
lfoot -8.44559 3.90131
ltoes -13.0701
